<svg width="13" height="17" viewBox="0 0 13 17" fill="none" xmlns="http://www.w3.org/2000/svg">
<path d="M12.1875 15.9375C12.6378 15.9375 13 15.5822 13 15.1406C13 14.699 12.6378 14.3438 12.1875 14.3438H0.8125C0.36224 14.3438 0 14.699 0 15.1406C0 15.5822 0.36224 15.9375 0.8125 15.9375H12.1875ZM5.90755 11.4352C6.0599 11.5945 6.27656 11.6875 6.5 11.6875C6.72344 11.6875 6.93672 11.5979 7.09245 11.4352L11.4258 6.91953C11.7339 6.59746 11.7169 6.09609 11.3919 5.79395C11.0669 5.4918 10.5523 5.5084 10.2443 5.82715L7.3125 8.88184V6.10938V1.85938C7.3125 1.41777 6.95026 1.0625 6.5 1.0625C6.04974 1.0625 5.6875 1.41777 5.6875 1.85938V6.10938V8.88184L2.75911 5.83047C2.45104 5.5084 1.93646 5.49512 1.61146 5.79727C1.28646 6.09941 1.26953 6.6041 1.5776 6.92285L5.91094 11.4385L5.90755 11.4352Z" fill="#056AB0"/>
</svg>
