<svg width="127" height="105" viewBox="0 0 127 105" fill="none" xmlns="http://www.w3.org/2000/svg">
<circle cx="18.5" cy="70.5" r="4.5" fill="#DFEEFC"/>
<circle cx="18.5" cy="28.5" r="4.5" fill="#DFEEFC"/>
<circle cx="101.5" cy="13.5" r="4.5" fill="#DFEEFC"/>
<circle cx="106.5" cy="64.5" r="3" stroke="#CEE8FF" stroke-width="3"/>
<circle cx="45.5" cy="4.5" r="3" stroke="#CEE8FF" stroke-width="3"/>
<circle cx="4.5" cy="51.5" r="3" stroke="#CEE8FF" stroke-width="3"/>
<circle cx="122.5" cy="37.5" r="4.5" fill="#DFEEFC"/>
<ellipse cx="66" cy="96" rx="31" ry="4" fill="#DFEEFC"/>
<rect opacity="0.5" x="36.9854" y="39.5436" width="41" height="54" rx="3.5" transform="rotate(-13.3553 36.9854 39.5436)" fill="#5B94C7" stroke="#5B94C7" stroke-width="3" stroke-dasharray="3 3"/>
<rect x="36.8035" y="39.3197" width="41.5764" height="54.1924" rx="3.5" transform="rotate(-13.2314 36.8035 39.3197)" stroke="#5B94C7" stroke-width="3" stroke-dasharray="3 3"/>
<rect x="48.5" y="38.5" width="42" height="53" rx="1.5" fill="white" stroke="#5B94C7" stroke-width="3"/>
<rect opacity="0.5" x="77" y="45" width="4" height="23" rx="2" transform="rotate(90 77 45)" fill="#5B94C7"/>
<rect opacity="0.5" x="77" y="54" width="4" height="23" rx="2" transform="rotate(90 77 54)" fill="#5B94C7"/>
<rect opacity="0.5" x="77" y="63" width="4" height="23" rx="2" transform="rotate(90 77 63)" fill="#5B94C7"/>
<rect opacity="0.5" x="77" y="72" width="4" height="23" rx="2" transform="rotate(90 77 72)" fill="#5B94C7"/>
<rect opacity="0.5" x="77" y="81" width="4" height="23" rx="2" transform="rotate(90 77 81)" fill="#5B94C7"/>
<rect opacity="0.5" x="86" y="45" width="4" height="6" rx="2" transform="rotate(90 86 45)" fill="#5B94C7"/>
<rect opacity="0.5" x="86" y="54" width="4" height="6" rx="2" transform="rotate(90 86 54)" fill="#5B94C7"/>
<rect opacity="0.5" x="86" y="63" width="4" height="6" rx="2" transform="rotate(90 86 63)" fill="#5B94C7"/>
<rect opacity="0.5" x="86" y="72" width="4" height="6" rx="2" transform="rotate(90 86 72)" fill="#5B94C7"/>
<rect opacity="0.5" x="86" y="81" width="4" height="6" rx="2" transform="rotate(90 86 81)" fill="#5B94C7"/>
<rect x="85.0887" y="84.3784" width="6.51064" height="27.3192" rx="1.5" transform="rotate(-48.8568 85.0887 84.3784)" fill="#CEE8FF" stroke="#5B94C7" stroke-width="3"/>
<circle cx="84.288" cy="79.5269" r="14.5" transform="rotate(4.25698 84.288 79.5269)" fill="#CEE8FF" stroke="#5B94C7" stroke-width="3"/>
<circle cx="84.288" cy="79.5269" r="8.5" transform="rotate(4.25698 84.288 79.5269)" fill="white" stroke="#5B94C7" stroke-width="3"/>
</svg>
